REM MD5 f32ab64ec3676b919abddb622cb7999c
FILE "Pizza Hut Demo 01 (Europe).bin" BINARY
  TRACK 01 MODE2/2352
    INDEX 01 00:00:00
  TRACK 02 AUDIO
    INDEX 00 33:17:29
    INDEX 01 33:19:29
  TRACK 03 AUDIO
    INDEX 00 36:59:37
    INDEX 01 37:01:37
REM LEADOUT 40:02:69
